PathFileType	4	(X/Y/Z)	F:\MotionCapture\20160217\3\Generated_files\EMG_test03-Dynamic.trc
DataRate	CameraRate	NumFrames	NumMarkers	Units	OrigDataRate	OrigDataStartFrame	OrigNumFrames
120.00	120.00	       9	39	mm	120.00	185	       739
Frame#	Time	Top.Head			Front.Head			Rear.Head			R.Shoulder			R.Offset			R.Elbow			R.Wrist			L.Shoulder			L.Elbow			L.Wrist			R.ASIS			L.ASIS			V.Sacral			R.Thigh			R.Knee			R.Shank			R.Ankle			R.Heel			R.Toe			L.Thigh			L.Knee			L.Shank			L.Ankle			L.Heel			L.Toe			R1			R2			R3			R4			R5			R6			R7			L1			L2			L3			L4			L5			L6			L7			V_Mid_ASIS			V_Pelvis_Origin			V_R.Hip_JC			V_L.Hip_JC			V_R.Knee_JC			V_L.Knee_JC			V_R.Ankle_JC			V_L.Ankle_JC			V_Mid_Hip			V_Mid_Shoulder			V_R.Hand			V_L.Hand			V_R.Toe_Offset_Static			V_L.Toe_Offset_Static			V_R.Toe_Offset			V_L.Toe_Offset			
		X1	Y1	Z1	X2	Y2	Z2	X3	Y3	Z3	X4	Y4	Z4	X5	Y5	Z5	X6	Y6	Z6	X7	Y7	Z7	X8	Y8	Z8	X9	Y9	Z9	X10	Y10	Z10	X11	Y11	Z11	X12	Y12	Z12	X13	Y13	Z13	X14	Y14	Z14	X15	Y15	Z15	X16	Y16	Z16	X17	Y17	Z17	X18	Y18	Z18	X19	Y19	Z19	X20	Y20	Z20	X21	Y21	Z21	X22	Y22	Z22	X23	Y23	Z23	X24	Y24	Z24	X25	Y25	Z25	X26	Y26	Z26	X27	Y27	Z27	X28	Y28	Z28	X29	Y29	Z29	X30	Y30	Z30	X31	Y31	Z31	X32	Y32	Z32	X33	Y33	Z33	X34	Y34	Z34	X35	Y35	Z35	X36	Y36	Z36	X37	Y37	Z37	X38	Y38	Z38	X39	Y39	Z39	

185	1.533																																																																																																																																																																						-3064.04492	167.29959	1620.21826	-3623.48901	124.83061	124.98829	-3063.79053	313.07047	38.19583	-3178.77686	168.57602	1701.44238	-3030.16187	-131.08565	940.67798	-3229.80835	39.92434	517.33221	-3205.23682	382.07016	1393.23816	-2981.38306	254.71632	37.34954	-3354.65479	506.20840	843.31097	-3107.81860	200.22112	47.04090	-3167.82422	305.84491	921.45703	-3202.82349	275.55893	36.42072	-3059.80005	258.03366	638.93762	-3024.09009	282.09232	39.48247	-3713.13330	78.74177	187.73856	-3013.51929	243.03987	43.06395	-3161.82617	286.79718	54.21034	-3230.41772	236.42516	37.73990	-3578.85107	61.30297	29.91717	-3088.83350	229.22607	323.23666	-3224.21460	-25.18019	1398.42810	-3095.68115	310.28964	462.09192	-3125.52783	293.86115	24.65655	-3204.82983	22.64656	902.40686	-3497.63086	88.94369	250.72963	-3490.48682	-26.01350	227.30421	-3636.54126	15.25010	61.02659	-3813.68579	497.29233	-149.97644	-3677.52441	141.41818	172.92197	
186	1.542																																																																																																																																																																						-3055.67114	167.83974	1623.50342	-3063.68701	314.11893	36.29333	-3170.75195	169.35078	1703.95691	-3025.86548	-131.15761	939.34320	-3195.59644	383.71918	1396.88806	-2981.53760	254.98244	37.51697	-3108.04126	200.55505	47.39842	-3159.01807	308.31863	924.48608	-3217.66528	-23.37563	1400.97827	-3202.95825	275.74915	36.14610	-3055.12549	259.25974	639.26563	-3024.19531	282.35287	39.37757	-3335.11084	506.54300	843.14661	-3013.70386	243.18715	43.14792	-3161.92773	287.01495	54.04394	-3230.46997	236.55070	37.67223	-3315.27881	3.63648	433.25336	-3088.40283	229.82455	323.05527	-3094.44629	312.08475	461.90643	-3125.64014	294.01559	24.40755	-3194.97021	23.83431	905.54083	-3479.85229	89.11887	253.55016	-3487.86304	-21.44048	228.84630	-3613.66553	125.79756	130.43163	-3670.73608	37.06376	129.31395	-3312.80908	481.43945	1099.61816	-3815.89258	498.96323	-150.77170	-3211.82568	39.05373	520.32764	-3660.94238	142.20793	181.55093	
187	1.550																																																																																																																																																																						-3193.80933	36.93319	523.20282	-3063.86890	314.73926	36.06670	-3161.42310	170.84190	1706.66968	-3022.36011	-131.92870	938.00574	-3314.93042	505.34845	842.88776	-3186.34546	384.60461	1399.68787	-2981.62671	255.34579	37.79069	-3045.13281	169.43260	1625.35901	-3108.11646	201.24266	47.36751	-3149.62866	309.86975	926.71100	-3203.14233	276.07825	35.91718	-3050.63721	260.79218	638.38098	-3024.37573	282.62155	39.33048	-3461.65112	-0.83220	208.24301	-3014.00488	243.67422	43.49226	-3162.04321	287.09143	53.80270	-3230.55200	236.78290	37.70050	-3190.01196	202.60184	40.55520	-3087.91040	230.57967	322.98422	-3092.62769	313.48010	460.95285	-3125.77686	294.23721	24.16069	-3183.16187	26.41612	908.52393	-3598.30469	126.54253	135.44087	-3298.92529	481.97144	1100.53540	-3820.32178	500.87125	-151.91325	-3642.04834	144.50542	189.92110	
188	1.558																																																																																																																																																																						-3087.00195	231.84135	322.23785	-3175.99243	37.57737	526.74078	-3064.07764	315.34421	36.09703	-3152.93066	172.78555	1709.80420	-3019.07959	-131.50386	935.95703	-3294.86768	504.60944	843.69019	-3176.75952	385.53998	1402.78577	-2981.94263	255.69359	38.08414	-3108.05957	201.50009	47.85250	-3140.68359	311.54742	928.86194	-3036.79883	171.08372	1628.30042	-3203.43726	276.27893	35.79295	-3047.26392	261.80334	637.16663	-3024.54663	283.03345	39.33913	-3203.09058	-21.99361	1406.42236	-3014.17017	244.34583	43.66796	-3162.12036	287.49020	53.59624	-3230.68481	236.98087	37.71773	-3189.94751	202.72208	40.57145	-3294.39697	9.31568	429.33838	-3441.60229	88.41991	260.56973	-3091.00537	314.66861	460.76428	-3126.09668	294.78830	24.18130	-3174.33569	27.27551	911.28558	-3563.12573	57.78738	24.89180	-3572.11426	82.29630	52.89394	-3351.86548	441.15054	104.58987	-3284.60107	482.21021	1101.01917	-3017.23267	339.55490	-73.50768	-3821.81348	501.65451	-151.92570	-3621.35645	146.39862	197.76617	
189	1.567																																																																																																																																																																						-3085.97656	233.05005	322.35989	-3158.55884	36.91625	529.98273	-3064.14844	315.94421	35.75359	-3015.48462	-132.31252	934.56158	-3166.36963	386.72330	1405.74841	-2982.07349	256.10388	38.25371	-3144.49634	172.06551	1711.78723	-3107.97974	202.18231	48.05651	-3132.08423	313.41101	930.77850	-3203.80298	276.48056	35.74367	-3024.62109	283.32498	39.23306	-3273.92432	503.62509	843.58514	-3014.32715	244.92657	43.95443	-3162.47119	287.77600	53.47279	-3230.90332	237.15881	37.73524	-3189.90137	202.78940	40.61596	-3556.72339	84.51792	54.24648	-3126.11646	294.98907	24.06009	-3163.00830	28.58426	913.68079	-3028.11694	171.05115	1630.90198	-3270.13184	482.91840	1101.54553	-3017.06323	339.92130	-73.64050	-3822.08228	502.23322	-151.78734	-3090.13550	315.51196	460.97794	-3043.53955	260.93332	635.49066	-3629.26978	84.75742	225.00911	-3421.09106	88.59080	263.84570	-3331.09790	459.12344	90.78571	
190	1.575																																																																																																																																																																						-3085.81787	235.12027	322.36084	-3064.28638	316.52139	35.44514	-3155.40820	29.34013	916.34595	-3012.91089	-132.04350	932.16870	-3541.91504	83.13499	59.12949	-2982.52393	256.71362	38.66698	-3136.28125	173.03452	1715.09717	-3108.26318	203.04782	48.30467	-3122.74731	313.77545	932.73083	-3140.87378	36.74011	534.58185	-3204.06641	276.71725	35.61549	-3037.61743	264.13416	635.83112	-3024.93286	283.72900	39.25904	-3157.08984	387.21869	1407.69409	-3253.40210	502.76648	843.08319	-3014.63745	245.15123	44.16107	-3162.98193	288.06924	52.99779	-3231.13062	237.32552	37.75680	-3190.12720	203.20059	40.93320	-3019.68140	172.74257	1633.45288	-3400.27173	90.66996	267.67694	-3536.23462	51.39722	33.37156	-3128.40601	303.93408	28.98295	-3185.36108	-18.41771	1410.73315	-3236.31445	4.51389	436.44080	-3255.46948	485.17847	1101.98474	-3017.00879	340.32980	-73.78564	-3089.19336	317.63989	460.59531	-3607.33643	87.25706	231.39546	
191	1.583																																																																																																																																																																						-3178.87646	-17.85520	1413.57129	-3064.56055	316.94806	35.15317	-3144.73511	31.01440	918.69531	-3010.50293	-133.39688	930.14130	-3114.37622	315.22089	934.57214	-2982.90259	257.04843	39.08431	-3127.08936	173.45056	1716.61792	-3110.57788	203.54085	48.60600	-3123.21802	34.91431	538.65802	-3204.66553	275.70346	36.73819	-3033.51880	264.99442	634.69037	-3025.18726	283.89383	39.21594	-3146.91675	387.63992	1410.18872	-3015.02148	245.42401	44.25372	-3163.43701	288.27487	52.80574	-3231.27295	237.42303	37.71692	-3190.32495	203.53273	41.20129	-3011.19678	172.34769	1636.14148	-3084.88574	236.65797	321.89935	-3128.82373	304.34506	28.76398	-3232.17798	501.94632	843.71265	-3216.67407	1.61996	440.03946	-3240.61914	486.29150	1102.54456	-3017.30347	340.83206	-73.67650	-3088.89160	319.65289	460.72971	
192	1.592																																																																																																																																																																						-3209.43750	501.82333	844.49194	-3064.73242	317.21866	34.97459	-3137.42212	32.44870	921.43176	-3008.42676	-132.62679	927.40289	-3105.35645	316.84067	936.33990	-2983.05957	257.62042	39.13419	-3118.69019	174.69160	1720.04724	-3109.87988	203.76382	48.91193	-3002.48096	173.98608	1638.28284	-3105.95728	34.12234	543.99237	-3204.97729	276.01538	36.62029	-3025.27319	284.06445	39.22189	-3137.12988	389.23755	1412.70337	-3028.38257	267.10147	633.75311	-3015.16113	246.30099	43.66594	-3163.68872	288.51358	52.74194	-3231.37402	237.44939	37.68463	-3083.33374	238.63390	321.89343	-3086.02661	-49.38337	266.83875	-3543.75684	25.39357	108.80678	-3129.10010	304.69714	28.46682	-3196.36987	1.53211	442.82715	-3496.11621	51.25552	38.38590	-3357.60718	90.05953	272.58194	-3225.62793	487.37112	1103.09961	-3017.31567	341.19595	-73.76530	-3197.50366	261.88190	-3.12856	-3088.59814	320.30045	460.86514	
193	1.600																																																																																																																																																																						-3187.46436	500.41422	844.91180	-3110.00659	174.60905	1721.25452	-3064.86743	317.53564	34.77406	-3126.94067	390.03076	1414.56689	-3005.97803	-133.44679	925.23657	-3096.28223	319.03894	937.45483	-2983.53564	258.07043	39.66766	-3110.49756	204.01590	49.56084	-2993.52490	168.73358	1640.54858	-3088.26172	33.07702	548.13873	-3205.33398	276.24753	36.58217	-3025.44995	267.30881	632.47565	-3024.95679	283.21964	39.58850	-3015.39478	246.59654	43.82087	-3164.24658	289.86160	52.78370	-3231.55396	237.65271	37.68452	-3333.42432	92.96151	277.18869	-3124.50732	33.12687	924.09943	-3087.11694	-39.12740	260.72333	-3128.98389	303.48907	26.73689	-3082.95996	238.65967	322.30936	-3176.78906	0.08126	446.23547	-3469.35791	51.00351	41.16411	-3196.61719	-136.80330	1100.99792	-3210.37427	488.25009	1103.61267	-3017.40234	341.43500	-73.68350	-3197.58813	262.65558	-3.35844	-3088.45435	320.66510	460.24442	-3518.50635	25.80653	109.90298	-3511.60010	267.33279	280.16010	
